# xmcd
#
# Track frame offsets:
#	150
#	22227
#	40371
#	57760
#	72960
#	89758
#	105996
#	123225
#	137250
#	153628
#	166488
#	183035
#	194694
#	206642
#	222819
#	236229
#	253832
#	269803
#	286552
#	299297
#	320670
#
# Disc length: 4508 seconds
#
# Revision: 1
# Processed by: cddbd v1.5.2PL0 Copyright (c) Steve Scherf et al.
# Submitted via: audiograbber 1.83.01
#
DISCID=47119a15
DTITLE=Various Artist - CDXMAS 1015 - Disc B
DYEAR=2002
DGENRE=Country
TTITLE0=The Tractors - Boogie Woogie Santa Claus
TTITLE1=The Charlie Daniels Band - God Bless The Mother
TTITLE2=Rascal Flatts - God Rest Ye Merry Gentlemen
TTITLE3=Oak Ridge Boys - The Most Inconvenient Christmas
TTITLE4=Aaron Tippin - It's Way Too Close To Christmas To Be This Far From You
TTITLE5=Tammy Cochran - Merry Christmas Darlin
TTITLE6=Billy Joe Shaver - Merry Christmas To You
TTITLE7=Bill Anderson - One Solitary Life (silent night)
TTITLE8=Bill Anderson - Po Folks Christmas
TTITLE9=SHeDaisy - Santa's Got a Brand New Bag
TTITLE10=Steve Wariner - This Christmas Prayer
TTITLE11=Cledus T. Judd - Tree's On Fire
TTITLE12=4-Runner - What Child is This
TTITLE13=Kevin Denny - White Christmas
TTITLE14=Brooks and Dunn - Winter Wonderland
TTITLE15=Moore and Moore - Green, Red, Whtie, and Blue
TTITLE16=Laura Dodd - He Would Be My King
TTITLE17=Jerry Springer - Pink Flamingos
TTITLE18=Will Jones and The Western Fringe - Reindeer Doo
TTITLE19=Suzanne Edwards Alford - Santa, You're Red, White, and Blue
TTITLE20=Layton Howerton - Starlight Mint
EXTD=
EXTT0=
EXTT1=
EXTT2=
EXTT3=
EXTT4=
EXTT5=
EXTT6=
EXTT7=
EXTT8=
EXTT9=
EXTT10=
EXTT11=
EXTT12=
EXTT13=
EXTT14=
EXTT15=
EXTT16=
EXTT17=
EXTT18=
EXTT19=
EXTT20=
PLAYORDER=
